# xmcd CD database file
#
# Track frame offsets:
#	150
#	19152
#	44732
#	67482
#	89787
#	113937
#	132592
#	151827
#	175182
#	194007
#	214027
#	232850
#	252550
#	275732
#	301687
#
# Disc length: 4284 seconds
#
# Revision: 1
# Processed by: cddbd v1.5.2PL0 Copyright (c) Steve Scherf et al.
# Submitted via: CDex 1.51
#
DISCID=e810ba0f
DTITLE=Jazz Salvation Company - Greatest Hits (So Far)
DYEAR=1998
DGENRE=Jazz
TTITLE0=Crazy Words, Crazy Tune
TTITLE1=Algiers Strut
TTITLE2=Love Me with a Feeling
TTITLE3=Iguana
TTITLE4=Home in Pasadena
TTITLE5=Limehouse Blues 
TTITLE6=Let me in the Lifeboat
TTITLE7=Lovbe Songs of the Nile
TTITLE8=Guay Down Gualala Way
TTITLE9=Dreaming the Hours Away
TTITLE10=Royal Telephone
TTITLE11=Pipe Creek Rag
TTITLE12=My Little Girl
TTITLE13=Panama
TTITLE14=I Need Lovin'
EXTD=YEAR: 1998
EXTT0=
EXTT1=
EXTT2=
EXTT3=
EXTT4=
EXTT5=
EXTT6=
EXTT7=
EXTT8=
EXTT9=
EXTT10=
EXTT11=
EXTT12=
EXTT13=
EXTT14=
PLAYORDER=
